<svg width="26" height="26" viewBox="0 0 26 26" fill="none" xmlns="http://www.w3.org/2000/svg">
<path d="M13 0C5.832 0 0 5.832 0 13C0 20.168 5.832 26 13 26C20.168 26 26 20.168 26 13C26 5.832 20.168 0 13 0ZM12.75 11.5H13.25C15.318 11.5 17 13.182 17 15.25C17 16.876 15.952 18.252 14.5 18.77V19.5C14.5 20.328 13.828 21 13 21C12.172 21 11.5 20.328 11.5 19.5V19H10.5C9.672 19 9 18.328 9 17.5C9 16.672 9.672 16 10.5 16H13.25C13.664 16 14 15.664 14 15.25C14 14.836 13.664 14.5 13.25 14.5H12.75C10.682 14.5 9 12.818 9 10.75C9 9.124 10.048 7.748 11.5 7.23V6.5C11.5 5.672 12.172 5 13 5C13.828 5 14.5 5.672 14.5 6.5V7H15.5C16.328 7 17 7.672 17 8.5C17 9.328 16.328 10 15.5 10H12.75C12.336 10 12 10.336 12 10.75C12 11.164 12.336 11.5 12.75 11.5Z" fill="#F7A804"/>
</svg>
